<svg xmlns="http://www.w3.org/2000/svg" version="1.1" xmlns:xlink="http://www.w3.org/1999/xlink" xmlns:svgjs="http://svgjs.dev/svgjs" width="100%" height="100%" viewBox="0 0 1000 600"><rect width="1000" height="600" x="0" y="0" fill="#444444"/><g><rect width="333.3333333333333" height="333.3333333333333" rx="13.333333333333334" ry="13.333333333333334" y="209.59218144004544" fill="#777777" transform="matrix(0.6671291545321513,0,0,0.6671291545321513,0,48.98672183824699)" x="187.3699188232422"/><path d="M301.74619887811906 451.2588237525181L301.74619887811906 451.2588237525181Q291.0611819079679 451.2588237525181 283.02377976227905 449.3361510823729Q274.9548583924894 447.41347841222773 270.5421670183857 445.49080574208256Q266.0979564201813 443.5681330719374 266.0979564201813 443.5681330719374L266.0979564201813 443.5681330719374L264.96326435255463 441.29874893668404Q264.96326435255463 441.29874893668404 265.43605271406574 438.20986497481147Q265.8773218514761 435.1525002370396 266.35011021298726 429.8257513640144Q266.7913793503976 424.49900249098926 267.232648487808 417.21806172371817Q267.7054368493191 409.9686401805478 267.7054368493191 401.80516113845596L267.7054368493191 401.80516113845596L277.91766545795906 400.6704690708293Q277.91766545795906 416.997427155013 280.1870495932124 425.50761766221297Q282.45643372846575 434.01780816941294 288.79179777271463 437.07517290718476Q295.15868104106426 440.1640568690574 307.41965921625234 440.1640568690574L307.41965921625234 440.1640568690574Q321.4772331651827 440.1640568690574 330.2080582410879 433.45046213559965Q338.9704025410938 426.7683866262426 338.9704025410938 415.20083138127075L338.9704025410938 415.20083138127075Q338.9704025410938 407.6992560452945 333.95884590907605 402.2464302758663Q328.978808501159 396.79360450643816 321.13052170007455 392.2548362359315Q313.31375412309086 387.7160679654248 304.4568521507827 383.1772996949182L304.4568521507827 383.1772996949182Q295.3793156097694 378.4178968557063 286.86912510256946 372.9650710862782Q278.3589345953694 367.5437645409508 272.90610882594126 360.38890067008265Q267.4848022806139 353.23403679921455 267.4848022806139 343.4630773279849L267.4848022806139 343.4630773279849Q267.4848022806139 331.45425294560266 274.3875123586761 321.9039280430783Q281.32174166083905 312.38512236465453 293.1099314745161 306.8377389229242Q304.9296405122939 301.2588362570931 319.6806373914405 301.2588362570931L319.6806373914405 301.2588362570931Q329.89286600008046 301.2588362570931 337.70963357706415 302.614162893425Q345.52640115404785 304.00100875385755 349.9706117522523 305.4508930624916Q354.383303126356 306.93229659522643 354.383303126356 306.93229659522643L354.383303126356 306.93229659522643L355.0767260565723 308.2876232315583Q355.0767260565723 308.2876232315583 354.0365916612479 313.51981443228124Q353.0279764900241 318.75200563300416 351.89328442239747 327.4828307089094Q350.7585923547708 336.21365578481453 350.06516942455454 346.64651896215975L350.06516942455454 346.64651896215975L341.23978667634714 347.5605764610812L339.85294081591456 346.4258843934545Q339.85294081591456 346.4258843934545 340.1996522810227 343.1478850869775Q340.5463637461308 339.8383665563997 340.5463637461308 334.63769457977753L340.5463637461308 334.63769457977753Q340.5463637461308 322.59735097329457 334.7468265115945 318.05858270278793Q328.978808501159 313.51981443228124 313.53438869179604 313.51981443228124L313.53438869179604 313.51981443228124Q301.0527759479028 313.51981443228124 293.01537380221384 319.76062080422787Q284.9464524324242 326.00142717617456 284.9464524324242 335.29959828589307L284.9464524324242 335.29959828589307Q284.9464524324242 342.10775069165305 289.26458613422574 347.4344995646782Q293.5827198360272 352.79276766180413 300.61150681049236 357.0793821395049Q307.6402937849575 361.39751584130636 315.8037728270494 365.7156495431078L315.8037728270494 365.7156495431078Q325.7953668669842 370.69568695102487 335.44024944181086 376.3691472891582Q345.0851320166375 382.04260762729155 351.4520152849871 389.32354839456264Q357.787379329236 396.572969937733 357.787379329236 407.0058331150782L357.787379329236 407.0058331150782Q357.787379329236 419.96023422048256 350.63251545836783 429.9518282604174Q343.5091708116005 439.91190307625146 330.90148117130417 445.5853634143848Q318.2937915310079 451.2588237525181 301.74619887811906 451.2588237525181ZM419.06075098107596 451.2588237525181L419.06075098107596 451.2588237525181Q403.64785039581375 451.2588237525181 397.28096712746407 445.01801738057145Q390.9140838591145 438.7772110086248 390.9140838591145 423.80557956077297L390.9140838591145 423.80557956077297L390.9140838591145 367.98503367836116Q390.9140838591145 361.87030420281747 388.2034305864508 359.3487662747582Q385.4927773137871 356.8587475707997 377.9912019778108 356.63811300209454L377.9912019778108 356.63811300209454L377.0771444788893 355.28278636576266L378.211836546516 348.4746339600027Q383.6646623159441 345.7324614632382 388.7707766202641 342.23382758805604Q393.87689092458413 338.70367448877306 397.8483131612774 335.425675182296Q401.81973539797076 332.11615665171826 404.0891195332241 329.9728494128679Q406.35850366847745 327.82954217401755 406.35850366847745 327.82954217401755L406.35850366847745 327.82954217401755L410.8972719389841 329.62613794775973Q410.8972719389841 329.62613794775973 410.32992590517074 333.9442716495612Q409.76257987135745 338.2624053513627 409.06915694114116 346.64651896215975L409.06915694114116 346.64651896215975L442.44801526382554 345.98461525604415L443.1099189699411 346.64651896215975L441.09268862749366 358.68686256864265L408.1866186663204 357.99343963842637Q407.4931957361041 368.67845660857745 407.05192659869374 382.956665126213Q406.57913823718263 397.26639286794926 406.57913823718263 414.72804301975964L406.57913823718263 414.72804301975964Q406.57913823718263 426.29559826473144 410.5505604738759 431.08652032804406Q414.52198271056926 435.84592316725593 424.2929421817989 435.84592316725593L424.2929421817989 435.84592316725593Q429.9664025199322 435.84592316725593 434.851882255547 433.79717360070777Q439.7058427670611 431.7484240341596 439.7058427670611 431.7484240341596L439.7058427670611 431.7484240341596L441.97522690231443 437.6425189409981Q441.97522690231443 437.6425189409981 439.2645736296507 439.6912685075463Q436.553920356987 441.74001807409445 432.5824981202937 444.4506713467581Q428.6110758836004 447.19284384352255 424.86028821561223 449.24159341007066Q421.10950054762407 451.2588237525181 419.06075098107596 451.2588237525181Z " fill="#eeeedd" transform="matrix(0.6671291545321513,0,0,0.6671291545321513,0,48.98672183824699)"/><path d="M636.286036195417 451.2588292862307L636.286036195417 451.2588292862307Q626.9179452650701 451.2588292862307 619.8711512024198 449.5731256084987Q612.7967226532494 447.88742193076666 608.9278945404217 446.20171825303464Q605.0314319410738 444.5160145753026 605.0314319410738 444.5160145753026L605.0314319410738 444.5160145753026L604.0365904263467 442.5263315458484Q604.0365904263467 442.5263315458484 604.4511077241498 439.8181518668691Q604.8379905354325 437.13760667441 605.2525078332355 432.46737845249663Q605.6393906445182 427.79715023058327 606.026273455801 421.41358384441776Q606.440790753604 415.0576519447724 606.440790753604 407.90031993604134L606.440790753604 407.90031993604134L615.3943643861478 406.9054784213142Q615.3943643861478 421.22014243877635 617.384047415602 428.68145379922964Q619.3737304450563 436.1427651596829 624.9282622356159 438.823310352142Q630.5104285126957 441.53149003112134 641.2602437690524 441.53149003112134L641.2602437690524 441.53149003112134Q653.5852247570604 441.53149003112134 661.239977523155 435.6453444023193Q668.9223647757699 429.7868332600375 668.9223647757699 419.6449767071251L668.9223647757699 419.6449767071251Q668.9223647757699 413.0679689153182 664.5284814190585 408.2872027473241Q660.1622325488673 403.50643657932994 653.2812454053383 399.5270705204216Q646.4278927483293 395.54770446151315 638.6626020361539 391.5683384026048L638.6626020361539 391.5683384026048Q630.7038699183371 387.395530938055 623.2425585578839 382.6147647700609Q615.7812471974306 377.861633088587 611.0004810294365 371.5886046485022Q606.2473493479627 365.31557620841744 606.2473493479627 356.7488853871563L606.2473493479627 356.7488853871563Q606.2473493479627 346.22014602296116 612.2993018958857 337.8468966073414Q618.3788889303291 329.50128167824187 628.714186888883 324.63761205068715Q639.0771193339568 319.74630793661225 652.0100590254092 319.74630793661225L652.0100590254092 319.74630793661225Q660.963632657953 319.74630793661225 667.8169853149619 320.9345908569808Q674.6703379719709 322.1505082638694 678.5668005713187 323.4216946437985Q682.4356286841462 324.72051551024776 682.4356286841462 324.72051551024776L682.4356286841462 324.72051551024776L683.0435873875906 325.90879843061623Q683.0435873875906 325.90879843061623 682.1316493324241 330.496123192969Q681.2473457637777 335.08344795532173 680.2525042490506 342.7382007214163Q679.2576627343236 350.39295348751097 678.6497040308793 359.5399685256962L678.6497040308793 359.5399685256962L670.912047805224 360.34136863478193L669.6961303983353 359.3465271200548Q669.6961303983353 359.3465271200548 670.0001097500575 356.47254052195433Q670.3040891017797 353.5709194373336 670.3040891017797 349.0112291615011L670.3040891017797 349.0112291615011Q670.3040891017797 338.4548553107858 665.2193435820634 334.4754892518774Q660.1622325488673 330.496123192969 646.6213341539707 330.496123192969L646.6213341539707 330.496123192969Q635.6780774919725 330.496123192969 628.6312834293224 335.967751523968Q621.5568548801518 341.43937985496706 621.5568548801518 349.59155337842526L621.5568548801518 349.59155337842526Q621.5568548801518 355.5606024667878 625.3427795334188 360.2308306887012Q629.1287041866858 364.9286933971347 635.2911946806898 368.6869835638815Q641.4536851746939 372.47290821714853 648.6110171834249 376.2588328704155L648.6110171834249 376.2588328704155Q657.3711494103275 380.6250817406067 665.8273022855078 385.5992893142422Q674.283455160688 390.5734968878777 679.8656214377679 396.9570632740432Q685.4201532283275 403.3129951736886 685.4201532283275 412.46001021187385L685.4201532283275 412.46001021187385Q685.4201532283275 423.81778417167493 679.1471247882428 432.57791639857743Q672.9017308346782 441.31041413895974 661.8479362265994 446.28462171259525Q650.7941416185205 451.2588292862307 636.286036195417 451.2588292862307ZM739.1415950235909 451.2588292862307L739.1415950235909 451.2588292862307Q725.6283311152145 451.2588292862307 720.0461648381346 445.7872009552317Q714.4639985610548 440.31557262423263 714.4639985610548 427.189191527139L714.4639985610548 427.189191527139L714.4639985610548 378.24851589986974Q714.4639985610548 372.8874255149515 712.0874327203179 370.6766665933357Q709.7108668795809 368.49354215824013 703.133859087774 368.3001007525987L703.133859087774 368.3001007525987L702.3324589786882 367.11181783223026L703.3273004934154 361.1427687438677Q708.1080666614095 358.7385684166105 712.5848534776813 355.6711404128686Q717.0616402939534 352.57607792260654 720.5435855954981 349.702091324506Q724.025530897043 346.8004702398853 726.0152139264973 344.9213251565119Q728.0048969559515 343.0421800731385 728.0048969559515 343.0421800731385L728.0048969559515 343.0421800731385L731.9842630148598 344.61734580478975Q731.9842630148598 344.61734580478975 731.4868422574963 348.40327045805674Q730.9894215001327 352.1891951113238 730.3814627966884 359.5399685256962L730.3814627966884 359.5399685256962L759.6463840215772 358.9596443087721L760.2267082385014 359.5399685256962L758.4581011012087 370.09634237641154L729.6076971741229 369.4883836729672Q728.9997384706786 378.85647460331404 728.6128556593958 391.3748969969634Q728.1983383615928 403.92095387713294 728.1983383615928 419.2304594093222L728.1983383615928 419.2304594093222Q728.1983383615928 429.37231596223455 731.6802836631376 433.5727579133045Q735.1622289646825 437.7455653778543 743.7289197859436 437.7455653778543L743.7289197859436 437.7455653778543Q748.7031273595791 437.7455653778543 752.9864727702097 435.9493237540415Q757.24218369432 434.15308213022865 757.24218369432 434.15308213022865L757.24218369432 434.15308213022865L759.2318667237743 439.3207311095056Q759.2318667237743 439.3207311095056 756.8553008830373 441.11697273331833Q754.4787350423004 442.9132143571312 750.9967897407555 445.28978019786814Q747.5148444392106 447.6939805251253 744.2263405433072 449.4902221489381Q740.9378366474037 451.2588292862307 739.1415950235909 451.2588292862307ZM780.9249386421291 428.1840330418661L781.7263387512148 379.85131611804115Q781.7263387512148 374.6560326522441 779.930097127402 371.89258400022436Q778.1338555035892 369.1015008616845 774.3755653368423 369.1015008616845L774.3755653368423 369.1015008616845Q772.7727651186709 369.1015008616845 771.0870614409388 369.4883836729672Q769.4013577632069 369.9029009707702 769.4013577632069 369.9029009707702L769.4013577632069 369.9029009707702L770.1751233857723 362.5244930698775Q774.7624481481251 361.7230929607918 779.7366557217606 360.7282514460647Q784.710863295396 359.73340993133763 788.9942087060266 358.7385684166105Q793.2775541166571 357.7437269018834 795.9580993091164 357.1634026849593Q798.6386445015754 356.55544398151494 798.6386445015754 356.55544398151494L798.6386445015754 356.55544398151494L799.826927421944 358.9596443087721Q798.8320859072169 361.5296515551504 797.9477823385705 367.80267999523517Q797.035844283404 374.07570843531994 796.2620786608385 382.4213233644195Q795.4606785517528 390.7945727800393 795.0461612539499 400.0244912777851Q794.6592784426671 409.28204426205116 794.6592784426671 418.0421764889537L794.6592784426671 418.0421764889537Q794.6592784426671 437.55212397221294 810.5767426783007 437.55212397221294L810.5767426783007 437.55212397221294Q817.5406332813903 437.55212397221294 823.6202203158338 433.6556613728651Q829.6721728637569 429.7868332600375 834.6463804373924 426.19435001241186L834.6463804373924 426.19435001241186L834.6463804373924 380.04475752368256Q834.6463804373924 374.07570843531994 832.4632560022968 371.67150810806277Q830.2801315672012 369.29494226732584 824.6979652901215 369.29494226732584L824.6979652901215 369.29494226732584Q823.8965651810357 369.29494226732584 821.9068821515815 369.40548021340663Q819.9171991221273 369.4883836729672 819.9171991221273 369.4883836729672L819.9171991221273 369.4883836729672L820.718599231213 362.33105166423616Q826.1073241026514 361.5296515551504 831.4684144875697 360.53481004042334Q836.829504872488 359.5399685256962 841.3062916887599 358.6556649570499Q845.7830785050319 357.7437269018834 848.5741616435718 357.1634026849593Q851.3652447821117 356.55544398151494 851.3652447821117 356.55544398151494L851.3652447821117 356.55544398151494L852.5535277024802 358.9596443087721Q851.3652447821117 361.9441688529534 850.3704032673846 372.2794668115071Q849.3755617526575 382.6147647700609 848.7676030492131 397.343946085326Q848.187278832289 412.0731274005911 848.187278832289 427.9905916362247L848.187278832289 427.9905916362247Q848.187278832289 432.35684050641584 850.3704032673846 434.761040833673Q852.5535277024802 437.13760667441 856.3394523557472 437.13760667441L856.3394523557472 437.13760667441Q859.5174183055699 437.13760667441 862.197963498029 435.8387858079607Q864.9061431770084 434.5675994280316 866.5918468547403 433.35168202114295Q868.2775505324724 432.1633991007744 868.2775505324724 432.1633991007744L868.2775505324724 432.1633991007744L871.0686336710123 435.3413650505971Q871.0686336710123 435.3413650505971 869.3829299932803 437.7455653778543Q867.669591829028 440.1221312185912 864.9890466365689 443.3000971684139Q862.3085014441098 446.50569760475685 859.3239768999285 448.8822634454938Q856.3394523557472 451.2588292862307 853.7418106228487 451.2588292862307L853.7418106228487 451.2588292862307Q837.6309049815737 451.2588292862307 836.0557392499225 435.14792364495577L836.0557392499225 435.14792364495577L835.0608977351955 434.761040833673Q825.4993653992071 442.11181424804545 817.8446126331125 446.6991390103982Q810.1898598670178 451.2588292862307 807.398776728478 451.2588292862307L807.398776728478 451.2588292862307Q794.6592784426671 451.2588292862307 787.8059257856581 445.28978019786814Q780.9249386421291 439.3207311095056 780.9249386421291 428.1840330418661L780.9249386421291 428.1840330418661ZM960.991252807734 451.2588292862307L960.991252807734 451.2588292862307Q945.4883058699033 451.2588292862307 943.2775469482876 437.13760667441L943.2775469482876 437.13760667441L941.8958226222777 436.5572824574858Q931.560524663724 443.5211730605755 925.3703996831998 447.08602182168096Q919.2079091891959 450.6785050693066 917.0247847541003 450.6785050693066L917.0247847541003 450.6785050693066Q905.6946452808194 450.6785050693066 897.0174165134775 445.4003181439489Q888.3678222326558 440.1221312185912 883.504152605101 430.67113682868376Q878.612848491026 421.22014243877635 878.612848491026 408.70172004512705L878.612848491026 408.70172004512705Q878.612848491026 394.3594215411447 885.3003942289139 382.5318613105003Q891.9603054802814 370.6766665933357 903.2904449535623 363.6298725306854Q914.6482189133633 356.55544398151494 928.1614828217397 356.55544398151494L928.1614828217397 356.55544398151494Q930.9525659602797 356.55544398151494 934.3239733157437 356.7488853871563Q937.7230151577279 356.9699612793179 941.8958226222777 357.35684409060065L941.8958226222777 357.35684409060065L941.8958226222777 324.333632698965Q941.8958226222777 318.75146642188514 940.099580998465 316.1814591755068Q938.3033393746522 313.5838174426083 934.5450492079053 313.5838174426083L934.5450492079053 313.5838174426083Q932.9422489897339 313.5838174426083 931.2565453120018 313.97070025389104Q929.5708416342699 314.385217551694 929.5708416342699 314.385217551694L929.5708416342699 314.385217551694L930.3446072568353 307.00680965080136Q935.5398907226323 306.42648543387725 940.7075397019092 305.43164391915013Q945.8751886811862 304.436802404423 950.2414375513773 303.4419608896959Q954.6353209080886 302.4471193749688 957.205328154467 301.8391606715245Q959.8029698873655 301.2588364546003 959.8029698873655 301.2588364546003L959.8029698873655 301.2588364546003L960.991252807734 303.82884370097867Q960.1898526986482 305.2382025135087 959.4160870760827 312.7824173335226Q958.614686966997 320.3542666400566 957.923824803992 332.67924762806456Q957.205328154467 345.0318631025927 956.6250039375428 360.4519065808627Q956.0170452340985 375.87195005913276 955.7130658823763 393.1711386207762Q955.4367210171744 410.4703271824197 955.4367210171744 427.9905916362247L955.4367210171744 427.9905916362247Q955.4367210171744 432.35684050641584 957.6198454522699 434.761040833673Q959.8029698873655 437.13760667441 963.5888945406326 437.13760667441L963.5888945406326 437.13760667441Q966.7668604904553 437.13760667441 969.4474056829143 435.8387858079607Q972.1279508753736 434.5675994280316 973.8412890396256 433.35168202114295Q975.5269927173578 432.1633991007744 975.5269927173578 432.1633991007744L975.5269927173578 432.1633991007744L978.3180758558976 435.3413650505971Q978.3180758558976 435.3413650505971 976.9087170433676 437.33104808005135Q975.5269927173578 439.3207311095056 973.1227923901006 442.22235219412624Q970.7462265493637 445.0963387922268 967.6511640591016 447.6939805251253Q964.5837360553596 450.2639877715036 960.991252807734 451.2588292862307ZM920.202750703923 437.7455653778543L920.202750703923 437.7455653778543Q923.7952339515485 437.7455653778543 927.5811586048156 436.1427651596829Q931.3394487715624 434.5675994280316 934.6279526674658 432.46737845249663Q937.9164565633693 430.36715747696167 939.9061395928235 428.7919917453104Q941.8958226222777 427.189191527139 941.8958226222777 427.189191527139L941.8958226222777 427.189191527139L941.8958226222777 372.6663496227899Q941.8958226222777 372.6663496227899 936.7281736430008 370.4003217281337Q931.560524663724 368.1066593469574 922.6069510311801 368.1066593469574L922.6069510311801 368.1066593469574Q909.2594940419249 368.1066593469574 901.6047412758302 377.14313643906183Q893.9499885097356 386.20724801768654 893.9499885097356 401.9312708476788L893.9499885097356 401.9312708476788Q893.9499885097356 411.8796859949497 897.4319338112804 420.0318595184079Q900.9138791128254 428.1840330418661 906.8829282011878 432.9647992098602Q912.8519772895505 437.7455653778543 920.202750703923 437.7455653778543ZM987.05057359628 451.2588292862307L987.05057359628 451.2588292862307L987.8519737053657 443.10665576277256Q993.8210227937283 441.53149003112134 996.4186645266269 438.4364275408592Q998.9886717730052 435.3413650505971 998.9886717730052 430.1737160713203L998.9886717730052 430.1737160713203L998.9886717730052 379.63024022587956Q998.9886717730052 374.07570843531994 997.2200646357124 371.4780667024214Q995.4238230118997 368.9080594560431 991.6378983586327 368.9080594560431L991.6378983586327 368.9080594560431Q990.0350981404613 368.9080594560431 988.3493944627293 369.29494226732584Q986.6636907849971 369.6818250786086 986.6636907849971 369.6818250786086L986.6636907849971 369.6818250786086L987.4650908940829 362.33105166423616Q992.4392984677185 361.5296515551504 997.4964095009145 360.53481004042334Q1002.5811550206307 359.5399685256962 1006.7539624851805 358.6556649570499Q1010.9267699497303 357.7437269018834 1013.524411682629 357.1634026849593Q1016.1220534155274 356.55544398151494 1016.1220534155274 356.55544398151494L1016.1220534155274 356.55544398151494L1017.1168949302545 358.9596443087721Q1016.3154948211687 360.9493273382263 1015.4035567660022 367.80267999523517Q1014.519253197356 374.6560326522441 1013.9112944939117 384.5215443399545Q1013.3309702769876 394.3594215411447 1012.9164529791846 405.9935403661477Q1012.5295701679017 417.6552936776709 1012.5295701679017 429.37231596223455L1012.5295701679017 429.37231596223455Q1012.5295701679017 435.14792364495577 1014.1323703860733 437.8284688374149Q1015.7075361177244 440.53664851639417 1019.4934607709914 440.53664851639417L1019.4934607709914 440.53664851639417Q1021.2897023948043 440.53664851639417 1023.8597096411826 440.31557262423263Q1026.457351374081 440.1221312185912 1026.457351374081 440.1221312185912L1026.457351374081 440.1221312185912L1026.8442341853638 440.923531327677L1025.2690684537129 449.4902221489381Q1025.2690684537129 449.4902221489381 1023.5833647759806 449.37968420285733Q1021.8700266117285 449.26914625677654 1019.1894814192693 449.1862427972159Q1016.5089362268103 449.07570485113513 1013.4138737365481 448.9928013915745Q1010.3464457328063 448.8822634454938 1007.5553625942663 448.8822634454938L1007.5553625942663 448.8822634454938Q1003.3825551297166 448.8822634454938 998.6017889617224 449.4902221489381Q993.8210227937283 450.07054636586224 990.4496154382642 450.6785050693066Q987.05057359628 451.2588292862307 987.05057359628 451.2588292862307ZM1004.570838050085 333.0937649258675L1004.570838050085 333.0937649258675Q999.5966304764496 333.0937649258675 997.2200646357124 329.8881644895246Q994.8158643084554 326.71019853970193 994.8158643084554 322.92427388643495L994.8158643084554 322.92427388643495Q994.8158643084554 318.17114220496103 998.2149061504397 314.68919690341613Q1001.5863135059038 311.20725160187135 1006.5605210795392 311.20725160187135L1006.5605210795392 311.20725160187135Q1011.3412872475334 311.20725160187135 1013.8283910343511 314.2746796056132Q1016.3154948211687 317.36974209587527 1016.3154948211687 321.3491081547837L1016.3154948211687 321.3491081547837Q1016.3154948211687 326.1298743227778 1013.0269909252653 329.61181962432266Q1009.7384870293619 333.0937649258675 1004.570838050085 333.0937649258675ZM1080.1787931693445 451.2588292862307L1080.1787931693445 451.2588292862307Q1068.8486536960636 451.2588292862307 1060.0885214691612 445.7042974956711Q1051.3283892422587 440.1221312185912 1046.4647196147039 430.0908126117597Q1041.573415500629 420.0318595184079 1041.573415500629 407.0989198269556L1041.573415500629 407.0989198269556Q1041.573415500629 392.78425580949346 1047.6530025350726 381.3435783901318Q1053.7049550829956 369.9029009707702 1064.261328933711 363.2153552328825Q1074.8177027844263 356.55544398151494 1087.7506424758785 356.55544398151494L1087.7506424758785 356.55544398151494Q1099.0807819491592 356.55544398151494 1107.840914176062 362.13761025859475Q1116.6010464029646 367.6921420491544 1121.4647160305192 377.6405571964254Q1126.3283856580738 387.58897234369635 1126.3283856580738 400.74298792731025L1126.3283856580738 400.74298792731025Q1126.3283856580738 414.864210539131 1120.2764331101507 426.3877914180532Q1114.1968460757073 437.93900678349564 1103.7510101710727 444.59891803486323Q1093.3051742664384 451.2588292862307 1080.1787931693445 451.2588292862307ZM1085.7609594464243 441.53149003112134L1085.7609594464243 441.53149003112134Q1096.8976575140637 441.53149003112134 1103.4470308193504 432.46737845249663Q1110.0240386111575 423.4032668738719 1110.0240386111575 407.90031993604134L1110.0240386111575 407.90031993604134Q1110.0240386111575 395.96222175931615 1106.431555363532 386.81520672113083Q1102.8667066024263 377.6405571964254 1096.4831402162608 372.47290821714853Q1090.1272083166155 367.3052592378716 1081.7815933875158 367.3052592378716L1081.7815933875158 367.3052592378716Q1070.6172608333563 367.3052592378716 1064.0678875280696 376.4522742760569Q1057.4908797362627 385.5992893142422 1057.4908797362627 401.32331214423436L1057.4908797362627 401.32331214423436Q1057.4908797362627 413.26141032095956 1061.0833629838883 422.32552189958426Q1064.6482117449937 431.3619989916887 1071.0317781311592 436.44674451140503Q1077.3877100308046 441.53149003112134 1085.7609594464243 441.53149003112134ZM1150.6190993093273 428.1840330418661L1151.4204994184129 379.85131611804115Q1151.4204994184129 374.6560326522441 1149.6242577946 371.89258400022436Q1147.8280161707871 369.1015008616845 1144.04209151752 369.1015008616845L1144.04209151752 369.1015008616845Q1142.466925785869 369.1015008616845 1140.7535876216168 369.4883836729672Q1139.0678839438847 369.9029009707702 1139.0678839438847 369.9029009707702L1139.0678839438847 369.9029009707702L1139.8692840529707 362.5244930698775Q1144.4566088153233 361.7230929607918 1149.4308163889586 360.7282514460647Q1154.4050239625942 359.73340993133763 1158.6607348867046 358.7385684166105Q1162.9440802973352 357.7437269018834 1165.6246254897942 357.1634026849593Q1168.3328051687736 356.55544398151494 1168.3328051687736 356.55544398151494L1168.3328051687736 356.55544398151494L1169.521088089142 358.9596443087721Q1168.526246574415 361.5296515551504 1167.6143085192484 367.80267999523517Q1166.730004950602 374.07570843531994 1165.9286048415165 382.4213233644195Q1165.1272047324305 390.7945727800393 1164.740321921148 400.0244912777851Q1164.3534391098651 409.28204426205116 1164.3534391098651 418.0421764889537L1164.3534391098651 418.0421764889537Q1164.3534391098651 437.55212397221294 1180.270903345499 437.55212397221294L1180.270903345499 437.55212397221294Q1187.2347939485885 437.55212397221294 1193.2867464965116 433.6556613728651Q1199.3663335309552 429.7868332600375 1204.3405411045906 426.19435001241186L1204.3405411045906 426.19435001241186L1204.3405411045906 380.04475752368256Q1204.3405411045906 374.07570843531994 1202.157416669495 371.67150810806277Q1199.9466577478793 369.29494226732584 1194.3921259573194 369.29494226732584L1194.3921259573194 369.29494226732584Q1193.590725848234 369.29494226732584 1191.6010428187797 369.40548021340663Q1189.6113597893254 369.4883836729672 1189.6113597893254 369.4883836729672L1189.6113597893254 369.4883836729672L1190.412759898411 362.33105166423616Q1195.7738502833295 361.5296515551504 1201.1625751547679 360.53481004042334Q1206.5236655396861 359.5399685256962 1211.0004523559583 358.6556649570499Q1215.4772391722302 357.7437269018834 1218.26832231077 357.1634026849593Q1221.0594054493097 356.55544398151494 1221.0594054493097 356.55544398151494L1221.0594054493097 356.55544398151494L1222.2476883696784 358.9596443087721Q1221.0594054493097 361.9441688529534 1220.0645639345828 372.2794668115071Q1219.0697224198555 382.6147647700609 1218.4617637164113 397.343946085326Q1217.853805012967 412.0731274005911 1217.853805012967 427.9905916362247L1217.853805012967 427.9905916362247Q1217.853805012967 432.35684050641584 1220.0645639345828 434.761040833673Q1222.2476883696784 437.13760667441 1226.0336130229455 437.13760667441L1226.0336130229455 437.13760667441Q1229.211578972768 437.13760667441 1231.8921241652272 435.8387858079607Q1234.5726693576864 434.5675994280316 1236.2583730354183 433.35168202114295Q1237.9717111996704 432.1633991007744 1237.9717111996704 432.1633991007744L1237.9717111996704 432.1633991007744L1240.73515985169 435.3413650505971Q1240.73515985169 435.3413650505971 1239.049456173958 437.7455653778543Q1237.3637524962262 440.1221312185912 1234.683207303767 443.3000971684139Q1232.0026621113077 446.50569760475685 1229.0181375671266 448.8822634454938Q1226.0336130229455 451.2588292862307 1223.4359712900466 451.2588292862307L1223.4359712900466 451.2588292862307Q1207.3250656487717 451.2588292862307 1205.7222654306006 435.14792364495577L1205.7222654306006 435.14792364495577L1204.7274239158733 434.761040833673Q1195.1935260664054 442.11181424804545 1187.5111388137905 446.6991390103982Q1179.8563860476957 451.2588292862307 1177.065302909156 451.2588292862307L1177.065302909156 451.2588292862307Q1164.3534391098651 451.2588292862307 1157.472451966336 445.28978019786814Q1150.6190993093273 439.3207311095056 1150.6190993093273 428.1840330418661L1150.6190993093273 428.1840330418661ZM1275.167730055856 451.2588292862307L1275.167730055856 451.2588292862307Q1268.0103980471247 451.2588292862307 1262.6216731756865 450.18108431194304Q1257.260582790768 449.07570485113513 1254.3865961926674 448.080863336408Q1251.4849751080467 447.08602182168096 1251.4849751080467 447.08602182168096L1251.4849751080467 447.08602182168096L1250.9046508911226 445.7042974956711Q1251.2915337024053 443.5211730605755 1251.788954459769 438.4364275408592Q1252.2863752171327 433.35168202114295 1252.7837959744963 427.79715023058327Q1253.2812167318596 422.21498395350346 1253.2812167318596 419.03701800368077L1253.2812167318596 419.03701800368077L1260.2451073349496 418.0421764889537Q1260.2451073349496 431.16855758604737 1264.6113562051403 436.5572824574858Q1269.005239561852 441.91837284240404 1279.5339789260472 441.91837284240404L1279.5339789260472 441.91837284240404Q1287.105828232581 441.91837284240404 1292.273477211858 438.54696548694005Q1297.4411261911348 435.14792364495577 1297.4411261911348 430.1737160713203L1297.4411261911348 430.1737160713203Q1297.4411261911348 426.8023087158562 1295.4514431616806 424.0112255773163Q1293.4617601322263 421.22014243877635 1288.487552558591 417.8487350833123Q1283.5133449849552 414.4496932413281 1274.36632994677 409.6965615598541L1274.36632994677 409.6965615598541Q1263.0361904734893 403.92095387713294 1257.8685414942126 397.9519047887703Q1252.6732580284154 391.9828557004077 1252.6732580284154 384.82552369167666L1252.6732580284154 384.82552369167666Q1252.6732580284154 376.6457156816983 1257.4540241964094 370.28978378205295Q1262.2347903644038 363.93385188240757 1270.5804052935034 360.2308306887012Q1278.9536547091232 356.55544398151494 1289.2889526676765 356.55544398151494L1289.2889526676765 356.55544398151494Q1297.4411261911348 356.55544398151494 1303.3272718199366 358.15824419968635Q1309.1857829622188 359.73340993133763 1309.1857829622188 359.73340993133763L1309.1857829622188 359.73340993133763L1309.6003002600216 360.7282514460647Q1309.6003002600216 360.7282514460647 1308.8818036104965 364.127293288049Q1308.1909414474915 367.498700643513 1307.306637878845 372.9703289745121Q1306.3946998236786 378.4419573055111 1305.8143756067545 385.0189650973181L1305.8143756067545 385.0189650973181L1298.4359677058621 385.5992893142422Q1298.4359677058621 385.5992893142422 1298.6570435980236 383.4161648791466Q1298.850485003665 381.233040444051 1298.850485003665 379.85131611804115L1298.850485003665 379.85131611804115Q1298.850485003665 372.6663496227899 1294.954022404317 369.40548021340663Q1291.0851942914894 366.11697631750314 1282.5185034702283 366.11697631750314L1282.5185034702283 366.11697631750314Q1275.7756887593002 366.11697631750314 1271.0778260508666 369.29494226732584Q1266.4075978289532 372.47290821714853 1266.4075978289532 377.0602329795013L1266.4075978289532 377.0602329795013Q1266.4075978289532 381.8409991474954 1270.4975018339426 386.01380661204513Q1274.5597713524114 390.18661407659494 1283.7344208771171 394.967380244589L1283.7344208771171 394.967380244589Q1294.4566016469537 400.52191203514866 1300.5361886813969 404.9986988514206Q1306.61577571584 409.47548566769257 1309.102879502658 413.67592761876256Q1311.5899832894759 417.8487350833123 1311.5899832894759 422.8229426569478L1311.5899832894759 422.8229426569478Q1311.5899832894759 430.36715747696167 1306.5052377697596 436.9441652687686Q1301.4204922500433 443.5211730605755 1293.1854152670246 447.3900011734031Q1284.9227037974854 451.2588292862307 1275.167730055856 451.2588292862307Z " fill="#eeeedd" transform="matrix(0.6671291545321513,0,0,0.6671291545321513,0,48.98672183824699)"/></g></svg>